<?xml version="1.0" standalone="no"?>
<!DOCTYPE svg PUBLIC "-//W3C//DTD SVG 20010904//EN"
 "http://www.w3.org/TR/2001/REC-SVG-20010904/DTD/svg10.dtd">
<svg version="1.0" xmlns="http://www.w3.org/2000/svg"
 width="32.000000pt" height="32.000000pt" viewBox="0 0 32.000000 32.000000"
 preserveAspectRatio="xMidYMid meet">

<g transform="translate(0.000000,32.000000) scale(0.100000,-0.100000)"
fill="#000000" stroke="none">
<path d="M0 160 l0 -160 160 0 160 0 0 160 0 160 -160 0 -160 0 0 -160z m169
118 c6 10 16 1 35 -33 29 -49 29 -68 -1 -44 -10 9 -14 9 -9 2 11 -19 -12 -53
-35 -53 -11 0 -24 10 -30 24 -7 14 -17 22 -25 19 -20 -7 -18 2 12 54 20 32 29
41 35 31 8 -11 10 -11 18 0z m69 -155 c2 -7 -1 -13 -7 -13 -6 0 -11 -4 -11 -8
0 -5 7 -9 15 -9 8 0 15 8 15 18 0 16 17 36 24 28 2 -2 6 -18 9 -35 l6 -31 -65
0 c-62 0 -64 1 -65 26 l-1 26 -7 -26 c-5 -23 -11 -26 -63 -28 -58 -2 -58 -2
-58 27 0 16 2 31 5 33 2 3 48 5 101 5 69 -1 99 -5 102 -13z"/>
<path d="M147 195 c-7 -16 8 -29 23 -20 10 6 2 35 -10 35 -4 0 -10 -7 -13 -15z"/>
</g>
</svg>
